#N canvas 0 54 1302 712 10;
#N canvas 0 54 1302 712 (subpatch) 0;
#X msg 613 96 40;
#X msg 613 185 86;
#X obj 803 485 dac~ 1 2;
#N canvas 0 50 450 250 (subpatch) 0;
#X array hanning 16387 float 0;
#X coords 0 2 16386 0 50 30 1 0 0;
#X restore 981 192 graph;
#X obj 930 81 loadbang;
#X obj 766 393 *~;
#X obj 769 204 phasor~;
#X obj 768 234 *~;
#X floatatom 768 167 12 0 0 0 - - -, f 12;
#X obj 767 268 tabread4~ hanning;
#X obj 768 184 sig~;
#X obj 780 431 tabwrite~ left;
#X obj 865 146 tgl 15 0 empty empty empty 17 7 0 10 -262144 -1 -1 1
1;
#X obj 768 146 /;
#X floatatom 786 126 5 0 0 0 - - -, f 5;
#X obj 765 315 osc~ 40;
#X obj 865 164 metro 100;
#X obj 881 392 *~;
#X obj 895 430 tabwrite~ right;
#X msg 983 142 \; hanning cosinesum 16384 1 -1 \;;
#X msg 828 205 16384;
#X msg 613 118 50;
#X msg 613 140 52;
#X msg 613 162 68;
#X obj 606 65 select 0 1 2 3 4;
#X msg 1081 86 \; pd dsp 1 \;;
#X obj 1004 65 select 0 1;
#X msg 1004 86 \; pd dsp 0 \;;
#X msg 948 153 40;
#X obj 669 184 delay;
#X obj 737 119 / 2;
#X msg 768 103 1;
#X text 12 13 Frequency Prototyping Patch;
#X obj 177 36 hsl 128 30 1 50 0 0 empty empty empty -2 -8 0 10 -4032
-1 -1 10108 1;
#N canvas 0 50 450 250 (subpatch) 0;
#X array left 2205 float 0;
#X coords 0 1 2204 -1 200 120 1 0 0;
#X restore 12 214 graph;
#N canvas 0 50 450 250 (subpatch) 0;
#X array right 2205 float 0;
#X coords 0 1 2204 -1 200 120 1 0 0;
#X restore 222 213 graph;
#X obj 14 38 hradio 30 1 1 5 empty empty empty 0 -8 0 10 -262144 -1
-1 0;
#X obj 322 36 tgl 30 0 empty empty on/off 0 -7 0 14 -260097 -1 -1 1
1;
#X obj 13 163 nbx 5 28 -1e+37 1e+37 0 0 empty empty Frequency 0 -12
0 20 -262144 -1 -1 40 256;
#X obj 450 215 vu 15 120 empty empty -1 -8 0 10 -66577 -1 1 0;
#X obj 430 215 vu 15 120 empty empty -1 -8 0 10 -66577 -1 0 0;
#X obj 768 81 t b f;
#X obj 175 95 nbx 5 28 1 50 0 0 empty empty Cycle_(sec.) 0 -10 0 14
-262144 -1 -1 40 256;
#X obj 765 460 *~;
#X obj 881 460 *~;
#X obj 513 213 vsl 40 120 0 1 0 1 empty empty empty 0 -9 0 10 -262144
-1 -1 8413 0;
#X msg 938 199 0.707;
#X obj 644 357 line 0.707 5;
#X msg 644 335 \$1 100;
#X floatatom 692 166 10 0 0 0 - - -, f 10;
#X obj 728 488 env~ 1024;
#X obj 894 486 env~ 1024;
#X obj 688 119 t b f;
#X obj 706 142 * 1000;
#X msg 805 145 0;
#X msg 669 209 0;
#X obj 898 347 *~ -1;
#X obj 898 368 +~ 1;
#X obj 15 95 hsl 128 30 10 100 0 0 empty empty Frequency -2 -12 0 20
-257985 -1 -1 4233 1;
#X obj 322 163 nbx 5 28 -1e+37 1e+37 0 0 empty empty Frequency 0 -12
0 20 -262144 -1 -1 0 256;
#X obj 324 95 hsl 128 30 -20 20 0 0 empty empty Freq.delta -2 -12 0
20 -262130 -1 -1 6350 1;
#X obj 905 266 +;
#X obj 907 246 t b f;
#X floatatom 905 287 5 0 0 0 - - -, f 5;
#X msg 966 108 0;
#X obj 905 311 osc~ 40;
#X obj 767 291 *~ 0.5;
#X obj 728 507 - 96;
#X obj 894 506 - 96;
#X connect 0 0 58 0;
#X connect 1 0 58 0;
#X connect 4 0 19 0;
#X connect 4 0 20 0;
#X connect 4 0 12 0;
#X connect 4 0 28 0;
#X connect 4 0 46 0;
#X connect 4 0 37 0;
#X connect 4 0 64 0;
#X connect 5 0 11 0;
#X connect 5 0 43 0;
#X connect 6 0 7 0;
#X connect 7 0 9 0;
#X connect 8 0 10 0;
#X connect 9 0 66 0;
#X connect 10 0 6 0;
#X connect 12 0 16 0;
#X connect 13 0 8 0;
#X connect 14 0 13 1;
#X connect 14 0 30 0;
#X connect 15 0 5 0;
#X connect 16 0 11 0;
#X connect 16 0 18 0;
#X connect 17 0 18 0;
#X connect 17 0 44 0;
#X connect 20 0 7 1;
#X connect 21 0 58 0;
#X connect 22 0 58 0;
#X connect 23 0 58 0;
#X connect 24 0 0 0;
#X connect 24 1 21 0;
#X connect 24 2 22 0;
#X connect 24 3 23 0;
#X connect 24 4 1 0;
#X connect 26 0 27 0;
#X connect 26 1 25 0;
#X connect 28 0 33 0;
#X connect 29 0 55 0;
#X connect 30 0 52 0;
#X connect 31 0 13 0;
#X connect 33 0 41 0;
#X connect 36 0 24 0;
#X connect 37 0 26 0;
#X connect 37 0 31 0;
#X connect 38 0 15 0;
#X connect 38 0 61 0;
#X connect 41 0 31 0;
#X connect 41 0 54 0;
#X connect 41 1 14 0;
#X connect 41 1 42 0;
#X connect 43 0 2 0;
#X connect 43 0 50 0;
#X connect 44 0 2 1;
#X connect 44 0 51 0;
#X connect 45 0 48 0;
#X connect 46 0 45 0;
#X connect 47 0 43 1;
#X connect 47 0 44 1;
#X connect 48 0 47 0;
#X connect 49 0 29 1;
#X connect 50 0 67 0;
#X connect 51 0 68 0;
#X connect 52 0 29 0;
#X connect 52 1 53 0;
#X connect 53 0 49 0;
#X connect 54 0 6 1;
#X connect 56 0 57 0;
#X connect 57 0 17 1;
#X connect 58 0 38 0;
#X connect 59 0 62 0;
#X connect 60 0 59 0;
#X connect 61 0 63 0;
#X connect 62 0 61 0;
#X connect 62 1 61 1;
#X connect 63 0 65 0;
#X connect 64 0 60 0;
#X connect 64 0 36 0;
#X connect 65 0 17 0;
#X connect 66 0 5 1;
#X connect 66 0 56 0;
#X connect 67 0 40 0;
#X connect 67 0 40 1;
#X connect 68 0 39 0;
#X connect 68 0 39 1;
#X coords 0 1 100 -1 600 400 1 0 0;
#X restore 4 4 graph;
#X coords 0 712 1 711 600 400 0;
