#N canvas 0 54 1302 712 10;
#N canvas 0 54 1302 712 (subpatch) 0;
#X msg 613 96 40;
#X msg 613 185 86;
#X obj 803 485 dac~ 1 2;
#N canvas 0 50 450 250 (subpatch) 0;
#X array hanning 16387 float 0;
#X coords 0 2 16386 0 50 30 1 0 0;
#X restore 1074 196 graph;
#X obj 1023 85 loadbang;
#X obj 766 393 *~;
#X obj 769 204 phasor~;
#X obj 768 234 *~;
#X floatatom 768 167 12 0 0 0 - - -, f 12;
#X obj 767 268 tabread4~ hanning;
#X obj 768 184 sig~;
#X obj 780 431 tabwrite~ left;
#X obj 958 150 tgl 15 0 empty empty empty 17 7 0 10 -262144 -1 -1 1
1;
#X obj 768 146 /;
#X floatatom 786 126 5 0 0 0 - - -, f 5;
#X obj 765 315 osc~ 40;
#X obj 767 291 *~ 0.5;
#X obj 958 168 metro 100;
#X obj 881 392 *~;
#X obj 903 233 *~;
#X obj 902 267 tabread4~ hanning;
#X obj 902 290 *~ 0.5;
#X obj 895 430 tabwrite~ right;
#X msg 1076 146 \; hanning cosinesum 16384 1 -1 \;;
#X msg 828 205 16384;
#X msg 613 118 50;
#X msg 613 140 52;
#X msg 613 162 68;
#X obj 606 65 select 0 1 2 3 4;
#X msg 921 86 \; pd dsp 1 \;;
#X obj 844 65 select 0 1;
#X msg 844 86 \; pd dsp 0 \;;
#X msg 1041 157 40;
#X obj 905 202 phasor~;
#X obj 669 184 delay;
#X obj 737 119 / 2;
#X msg 768 103 1;
#X text 12 13 Frequency Prototyping Patch;
#X obj 177 36 hsl 128 30 1 50 0 0 empty empty empty -2 -8 0 10 -4032
-1 -1 9208 1;
#N canvas 0 50 450 250 (subpatch) 0;
#X array left 2205 float 0;
#X coords 0 1 2204 -1 200 120 1 0 0;
#X restore 12 149 graph;
#N canvas 0 50 450 250 (subpatch) 0;
#X array right 2205 float 0;
#X coords 0 1 2204 -1 200 120 1 0 0;
#X restore 222 148 graph;
#X obj 14 38 hradio 30 1 1 5 empty empty empty 0 -8 0 10 -262144 -1
-1 0;
#X obj 322 36 tgl 30 0 empty empty on/off 0 -7 0 14 -260097 -1 -1 1
1;
#X obj 13 98 nbx 5 28 -1e+37 1e+37 0 0 empty empty Frequency 0 -12
0 20 -262144 -1 -1 40 256;
#X obj 450 150 vu 15 120 empty empty -1 -8 0 10 -66577 -1 1 0;
#X obj 430 150 vu 15 120 empty empty -1 -8 0 10 -66577 -1 0 0;
#X obj 768 81 t b f;
#X obj 175 97 nbx 5 28 1 50 0 0 empty empty Cycle_(sec.) 0 -12 0 20
-262144 -1 -1 36.5269 256;
#X obj 765 460 *~;
#X obj 881 460 *~;
#X obj 513 148 vsl 40 120 0 1 0 1 empty empty empty 0 -9 0 10 -262144
-1 -1 8413 0;
#X msg 1031 203 0.707;
#X obj 644 357 line 0.707 5;
#X msg 644 335 \$1 100;
#X floatatom 692 166 10 0 0 0 - - -, f 10;
#X obj 728 508 - 100;
#X obj 728 488 env~ 1024;
#X obj 894 506 - 100;
#X obj 894 486 env~ 1024;
#X obj 688 119 t b f;
#X obj 706 142 * 1000;
#X msg 805 145 0;
#X msg 669 209 0;
#X connect 0 0 43 0;
#X connect 1 0 43 0;
#X connect 4 0 23 0;
#X connect 4 0 24 0;
#X connect 4 0 12 0;
#X connect 4 0 32 0;
#X connect 4 0 51 0;
#X connect 4 0 42 0;
#X connect 5 0 11 0;
#X connect 5 0 48 0;
#X connect 6 0 7 0;
#X connect 7 0 9 0;
#X connect 8 0 10 0;
#X connect 9 0 16 0;
#X connect 10 0 6 0;
#X connect 10 0 33 0;
#X connect 12 0 17 0;
#X connect 13 0 8 0;
#X connect 14 0 13 1;
#X connect 14 0 35 0;
#X connect 15 0 5 0;
#X connect 15 0 18 0;
#X connect 16 0 5 1;
#X connect 17 0 11 0;
#X connect 17 0 22 0;
#X connect 18 0 22 0;
#X connect 18 0 49 0;
#X connect 19 0 20 0;
#X connect 20 0 21 0;
#X connect 21 0 18 1;
#X connect 24 0 7 1;
#X connect 24 0 19 1;
#X connect 25 0 43 0;
#X connect 26 0 43 0;
#X connect 27 0 43 0;
#X connect 28 0 0 0;
#X connect 28 1 25 0;
#X connect 28 2 26 0;
#X connect 28 3 27 0;
#X connect 28 4 1 0;
#X connect 30 0 31 0;
#X connect 30 1 29 0;
#X connect 32 0 38 0;
#X connect 33 0 19 0;
#X connect 34 0 62 0;
#X connect 35 0 59 0;
#X connect 36 0 13 0;
#X connect 38 0 46 0;
#X connect 41 0 28 0;
#X connect 42 0 30 0;
#X connect 42 0 36 0;
#X connect 43 0 15 0;
#X connect 46 0 36 0;
#X connect 46 0 61 0;
#X connect 46 1 14 0;
#X connect 46 1 47 0;
#X connect 48 0 2 0;
#X connect 48 0 56 0;
#X connect 49 0 2 1;
#X connect 49 0 58 0;
#X connect 50 0 53 0;
#X connect 51 0 50 0;
#X connect 52 0 48 1;
#X connect 52 0 49 1;
#X connect 53 0 52 0;
#X connect 54 0 34 1;
#X connect 55 0 45 0;
#X connect 55 0 45 1;
#X connect 56 0 55 0;
#X connect 57 0 44 0;
#X connect 57 0 44 1;
#X connect 58 0 57 0;
#X connect 59 0 34 0;
#X connect 59 1 60 0;
#X connect 60 0 54 0;
#X connect 61 0 6 1;
#X connect 62 0 33 1;
#X coords 0 1 100 -1 600 300 1 0 0;
#X restore 3 14 graph;
#X coords 0 712 1 711 85 60 0;
